<?xml version="1.0" standalone="no"?>
<!DOCTYPE svg PUBLIC "-//W3C//DTD SVG 1.1//EN" "http://www.w3.org/Graphics/SVG/1.1/DTD/svg11.dtd" >
<svg xmlns="http://www.w3.org/2000/svg">
<metadata>
Created by FontForge 20120731 at Thu Aug 11 16:59:20 2016
 By admin
</metadata>
<defs>
<font id="iconfont" horiz-adv-x="1024" >
  <font-face 
    font-family="iconfont"
    font-weight="500"
    font-stretch="normal"
    units-per-em="1024"
    panose-1="2 0 6 3 0 0 0 0 0 0"
    ascent="896"
    descent="-128"
    x-height="792"
    bbox="-0.025 -186 1178 914"
    underline-thickness="50"
    underline-position="-100"
    unicode-range="U+0078-E61D"
  />
<missing-glyph horiz-adv-x="374" 
d="M34 0v682h272v-682h-272zM68 34h204v614h-204v-614z" />
    <glyph glyph-name=".notdef" horiz-adv-x="374" 
d="M34 0v682h272v-682h-272zM68 34h204v614h-204v-614z" />
    <glyph glyph-name=".null" horiz-adv-x="0" 
 />
    <glyph glyph-name="nonmarkingreturn" horiz-adv-x="341" 
 />
    <glyph glyph-name="x" unicode="x" horiz-adv-x="1001" 
d="M281 543q-27 -1 -53 -1h-83q-18 0 -36.5 -6t-32.5 -18.5t-23 -32t-9 -45.5v-76h912v41q0 16 -0.5 30t-0.5 18q0 13 -5 29t-17 29.5t-31.5 22.5t-49.5 9h-133v-97h-438v97zM955 310v-52q0 -23 0.5 -52t0.5 -58t-10.5 -47.5t-26 -30t-33 -16t-31.5 -4.5q-14 -1 -29.5 -0.5
t-29.5 0.5h-32l-45 128h-439l-44 -128h-29h-34q-20 0 -45 1q-25 0 -41 9.5t-25.5 23t-13.5 29.5t-4 30v167h911zM163 247q-12 0 -21 -8.5t-9 -21.5t9 -21.5t21 -8.5q13 0 22 8.5t9 21.5t-9 21.5t-22 8.5zM316 123q-8 -26 -14 -48q-5 -19 -10.5 -37t-7.5 -25t-3 -15t1 -14.5
t9.5 -10.5t21.5 -4h37h67h81h80h64h36q23 0 34 12t2 38q-5 13 -9.5 30.5t-9.5 34.5q-5 19 -11 39h-368zM336 498v228q0 11 2.5 23t10 21.5t20.5 15.5t34 6h188q31 0 51.5 -14.5t20.5 -52.5v-227h-327z" />
    <glyph glyph-name="uniE600" unicode="&#xe600;" 
d="M512 -120q-102 0 -195.5 40t-161 107.5t-107.5 161t-40 195.5t40 195.5t107.5 161t161 107.5t195.5 40t195.5 -40t161 -107.5t107.5 -161t40 -195.5t-40 -195.5t-107.5 -161t-161 -107.5t-195.5 -40zM512 840q-124 0 -229 -61t-166 -166t-61 -229q0 -93 36 -177
t97.5 -145.5t145.5 -97.5t177 -36t177 36t145.5 97.5t97.5 145.5t36 177q0 124 -61 229t-166 166t-229 61zM476 221q-1 13 -1 20q0 40 12 69q8 21 26 43q14 17 49 48t45.5 49t10.5 40q0 39 -31 69t-75 30q-43 0 -72 -27t-38 -84l-70 8q10 77 56 117.5t123 40.5
q80 0 128 -43.5t48 -106.5q0 -36 -17 -66t-66 -74q-33 -29 -43 -43t-15 -32t-5 -58h-65zM472 85v77h76v-77h-76z" />
    <glyph glyph-name="uniE601" unicode="&#xe601;" 
d="M519 -128q-104 -1 -199.5 38t-165 107t-111.5 162t-43 198t38 199.5t107 165t162 111.5t198 43t199.5 -38t165 -107t111.5 -162t43 -198t-38 -199.5t-107 -165t-162 -111.5t-198 -43zM506 827.5q-90 -1.5 -171.5 -37.5t-140.5 -96t-93 -143t-33 -173q2 -98 43.5 -184.5
t114.5 -148.5q31 34 89.5 67.5t85.5 44.5t44 17l-1 70q-21 6 -39 22.5t-28 35.5t-16.5 37.5t-8.5 30.5l-3 12q-15 7 -27 18.5t-16 19.5l-4 8q-11 29 -6 39t17 9l12 -1l-1 93q1 35 12 64t27 45.5t35.5 29t38.5 16.5t35 8t25.5 2t10.5 0q3 0 9.5 0.5t25 -1.5t35.5 -7t38.5 -16
t37.5 -27.5t28 -45t14 -63.5l1 -94q2 1 5 1.5t10 0t11 -4t4.5 -14.5t-6.5 -29q-1 -3 -4 -8.5t-15 -18t-27 -20.5q-1 -5 -2.5 -13t-8 -29t-15.5 -39t-26.5 -35.5t-38.5 -24.5l1 -69q17 -6 44 -16.5t87 -42.5t91 -64q71 63 110.5 150.5t38.5 186.5q-1 90 -37.5 171.5
t-96.5 140.5t-143 93t-173 32.5z" />
    <glyph glyph-name="uniE602" unicode="&#xe602;" 
d="M341 418l-241 185v-426zM922 689h-819l409 -314zM627 375l-115 -88l-115 88l-296 -296h822zM683 418l241 -242v427z" />
    <glyph glyph-name="uniE603" unicode="&#xe603;" 
d="M512 -23q-103 0 -190 50.5t-137.5 137.5t-50.5 189.5t50.5 190t137.5 138t190 50.5t190 -50.5t137.5 -138t50.5 -190t-50.5 -189.5t-137.5 -137.5t-190 -50.5zM512 685q-90 0 -166 -44t-120.5 -120t-44.5 -166t44.5 -166.5t120.5 -120.5t166 -44t166 44t120.5 120.5
t44.5 166.5t-44.5 166t-120.5 120t-166 44zM619 334l-181 -181q-7 -7 -16.5 -7t-16.5 7t-7 16.5t7 16.5l168 169l-168 168q-7 7 -7 16.5t7 16.5t16.5 7t16.5 -7l181 -181q8 -8 6 -20q3 -13 -6 -21z" />
    <glyph glyph-name="uniE604" unicode="&#xe604;" 
d="M512 799q-103 0 -190.5 -50.5t-138 -138t-50.5 -190.5t50.5 -190.5t138 -138t190.5 -50.5t190.5 50.5t138 138t50.5 190.5t-50.5 190.5t-138 138t-190.5 50.5zM838 419.5q0 -88.5 -43.5 -163.5t-118.5 -118.5t-164 -43.5t-164 43.5t-118.5 118.5t-43.5 163.5t43.5 164
t118.5 119t164 43.5t164 -43.5t118.5 -119t43.5 -164zM362 340l48 4q4 -31 16.5 -51t39 -32.5t58.5 -12.5q30 0 52 9.5t33 26t11 35.5t-10.5 34t-34.5 25q-16 6 -69 20t-74 26q-28 16 -41.5 39t-13.5 52q0 31 16.5 58.5t48.5 41.5t71 14q43 0 75.5 -14.5t50.5 -43.5t19 -66
l-49 -4q-4 39 -26.5 59.5t-67.5 20.5q-46 0 -67.5 -18.5t-21.5 -44.5q0 -22 15 -37q15 -14 77.5 -29.5t85.5 -26.5q33 -17 49.5 -42.5t16.5 -59.5q0 -33 -18 -62.5t-51 -45.5t-74 -16q-53 0 -88 16.5t-55.5 49.5t-21.5 75z" />
    <glyph glyph-name="uniE605" unicode="&#xe605;" horiz-adv-x="1025" 
d="M94 879h584h131h37q22 0 29 -2q24 -7 45 -23q4 -2 7 -7l4 -3q7 -10 9 -12q8 -14 15 -41v-24v-47v-127v-147v-49q-2 -9 -4 -12q-6 -11 -17 -15q-13 -6 -25 -0.5t-18 15.5q-2 3 -3 10t-1 13v15v13v271v50q0 30 -7 40l-4 5q-8 6 -18 8l-13 1h-26h-112h-451h-122h-21
q-10 0 -11.5 -0.5t-3.5 -0.5h-4q-13 -4 -19 -14q-7 -9 -7 -53v-115v-450v-121q0 -36 2 -41q4 -11 13 -18q9 -6 41 -6h75h300h33h16q8 -3 15 -8t10.5 -16t-0.5 -22q-6 -14 -19 -20q-5 -2 -46 -2h-98h-212h-75q-35 0 -43 2q-52 15 -72 61q-3 6 -4.5 13.5t-2.5 18t-1 15.5v21
v18v158v404v108v42q0 2 0.5 5.5t1.5 4.5q4 17 7 24q16 36 56 53q3 2 19 6h4q5 0 6 1zM302 640h321h45q20 0 23 -1q13 -4 21 -16q7 -11 4 -22q-5 -22 -23 -28q-4 -1 -28 -1h-55h-215h-65h-32q-20 6 -25 29q-2 7 0 13t5 11q5 8 15 13q1 0 4.5 0.5t4.5 1.5zM302 435h321h45h23
q13 -4 21 -16q7 -12 4 -23q-5 -22 -23 -28q-4 -1 -28 -1h-55h-215h-65q-29 0 -32 1q-20 6 -25 28q-2 7 0 14q2 6 5 10q5 8 15 13q1 0 4.5 0.5t4.5 1.5zM776 305q58 1 102 -27q34 -22 56 -56q8 -13 11 -19q1 -2 2.5 -6.5t2.5 -6.5q7 -19 10 -43.5t-2 -48.5q0 -3 -1 -8t-2 -8
q-9 -28 -14 -36q-3 -5 -13 -21q3 0 6.5 -1.5t6.5 -3.5t5 -4t5 -5.5t4 -4.5l44 -44q2 -2 6 -5.5t6.5 -6t5.5 -6t4 -7.5q4 -11 1 -22.5t-10 -17t-14 -7.5q-14 -4 -27 4q-3 2 -11 10l-18 18l-32 33q-2 2 -5.5 5t-6 5.5t-4.5 5.5q-3 4 -5 9q-1 0 -1 2t-1 3q0 -1 -9 -6
q-10 -7 -19 -10q-14 -7 -28 -11q-4 -2 -12 -3t-10.5 -1.5t-7.5 -0.5t-8 -1q-9 -2 -17 0q-6 0 -10 1q-3 0 -13 1.5t-15 3.5q-19 6 -29 11q-10 4 -29 17q-44 32 -63 88q-1 1 -8 30v8q0 5 -1 7q-2 12 1 27q1 3 1 7.5t1 7.5q8 29 11 36q28 65 94 94q8 3 38 11q12 2 17 2h3
q2 0 2 1zM778 236q-2 0 -7 -0.5t-7 -1.5q-16 -4 -20 -6q-42 -18 -61 -62q0 -2 -5 -21q-5 -21 3 -44q4 -15 6 -18q15 -36 53 -53q10 -4 24 -8q2 0 6.5 -0.5t7.5 -0.5q7 -2 13 -1q2 1 5 1h5q19 5 21 6q44 18 62 59q3 6 7 22q0 2 0.5 6.5t0.5 6.5q2 10 0 21q-5 21 -8 28
q-21 49 -79 64q-6 2 -27 2zM302 231h184h22q10 0 12 -1q14 -4 21 -16t5 -22q-5 -23 -26 -29q-2 -1 -17 -1h-33h-112h-41q-20 0 -27 4q-9 6 -14.5 16.5t-2.5 22.5q3 7 8 14q4 6 14 10q6 1 7 2z" />
    <glyph glyph-name="uniE606" unicode="&#xe606;" 
d="M67 -128v935h156v89h178v-89h222v89h178v-89h156v-935h-890zM334 740v67v22h-45v-133h45v44zM735 829h-45v-133h45v133zM890 740h-89v-111h-178v111h-222v-111h-178v111h-89v-133h756v133zM890 540h-756v-601h756v601zM467 339h-289v67h289v-67zM690 139h-512v67h512v-67
z" />
    <glyph glyph-name="uniE607" unicode="&#xe607;" 
d="M1005 359l-1 49q-1 37 -28 63t-64 26l-24 -1q-12 40 -32 76l21 19q27 25 28.5 62.5t-23.5 65.5l-33 36q-26 27 -63.5 28.5t-64.5 -23.5l-28 -25q-34 18 -71 30v24q0 37 -26.5 63.5t-63.5 26.5h-49q-38 0 -64.5 -26.5t-26.5 -63.5v-19q-40 -10 -76 -29l-17 16
q-28 25 -65.5 23.5t-62.5 -28.5l-34 -37q-25 -27 -23.5 -64.5t29.5 -62.5l4 -4q-25 -43 -40 -91q-37 1 -64 -25t-27 -63l-1 -50q-1 -37 25 -64t64 -28h2q13 -46 37 -87l-6 -6q-25 -28 -23.5 -65.5t29.5 -62.5l36 -33q26 -24 61 -24q40 0 67 29l1 1q41 -22 86 -33v-3
q0 -37 26.5 -63.5t64.5 -26.5h49q37 0 63.5 26.5t26.5 63.5v9q43 14 82 37l7 -8q25 -27 62.5 -28.5t65.5 23.5l36 33q27 26 28.5 63.5t-23.5 64.5l-19 21q18 35 28 72l25 1q37 0 63 27t26 65zM931 339q-7 -6 -17 -6l-50 -1q-11 -1 -20 -8t-11 -19q-11 -53 -39 -100
q-12 -21 5 -39l35 -38q7 -7 6.5 -17t-8.5 -17l-36 -34q-7 -7 -17.5 -6.5t-17.5 8.5l-26 28q-8 9 -20 10.5t-23 -5.5q-50 -35 -109 -50q-11 -3 -18 -12t-7 -20v-34q0 -10 -7 -17t-17 -7h-49q-11 0 -18 7t-7 17v29q0 12 -7.5 21t-19.5 11q-61 12 -114 45q-10 6 -22 4.5
t-20 -10.5l-19 -21q-7 -7 -17 -7.5t-18 6.5l-36 33q-7 7 -7.5 17.5t6.5 17.5l22 24q18 19 4 40q-35 53 -48 114q-2 11 -11 18t-21 8h-27q-10 0 -17 7.5t-7 17.5l1 49q0 10 6 17q8 8 19 7h25q12 0 21 7t12 19q14 63 52 117q7 11 5.5 23t-10.5 20l-25 23q-7 7 -7.5 17t6.5 18
l33 36q7 7 17 7.5t18 -6.5l34 -31q18 -17 39 -5q49 29 105 40q11 2 18.5 11t7.5 21v45q0 10 7 17.5t18 7.5h49q10 0 17 -7.5t7 -17.5v-49q0 -11 7 -20t18 -12q53 -13 99 -42q21 -14 40 4l46 42q7 7 17 6.5t17 -8.5l34 -36q7 -7 6.5 -17.5t-8.5 -17.5l-40 -37
q-9 -8 -10.5 -20t4.5 -22q32 -49 45 -105q3 -11 12 -18t21 -7l49 1q10 0 17.5 -7t7.5 -17l1 -50q0 -10 -8 -18zM509.5 525q-59.5 0 -101.5 -42t-42 -101.5t42 -101.5t101.5 -42t101.5 42t42 101.5t-42 101.5t-101.5 42zM509 304q-32 0 -54.5 22.5t-22.5 54.5t22.5 55
t54.5 23t55 -23t23 -55t-23 -54.5t-55 -22.5z" />
    <glyph glyph-name="uniE608" unicode="&#xe608;" 
d="M522.5 853q-97.5 0 -186.5 -38t-153 -102t-102 -153t-38 -186.5t38 -186.5t102 -153.5t153 -102.5t186.5 -38t186.5 38t153.5 102.5t102.5 153.5t38 186.5t-38 186.5t-102.5 153t-153.5 102t-186.5 38zM523 -43q-113 0 -209 56t-151.5 151.5t-55.5 208.5t55.5 209
t151.5 151.5t209 55.5t208.5 -55.5t151.5 -151.5t56 -209t-56 -208.5t-151.5 -151.5t-208.5 -56zM740 610q9 9 9 22t-9 22t-22 9t-23 -9l-173 -173l-171 171q-10 9 -22.5 9t-20.5 -9q-9 -9 -9 -21.5t9 -21.5l183 -183v-21h-160q-14 0 -23 -9t-9 -22.5t9 -23t23 -9.5h160
v-128h-160q-14 0 -23 -9t-9 -22.5t9 -23t23 -9.5h160v-96q0 -13 9 -22.5t22.5 -9.5t23 9.5t9.5 22.5v96h160q13 0 22.5 9.5t9.5 23t-9.5 22.5t-22.5 9h-160v128h160q13 0 22.5 9.5t9.5 23t-9.5 22.5t-22.5 9h-160v20z" />
    <glyph glyph-name="uniE609" unicode="&#xe609;" horiz-adv-x="1000" 
d="M515.5 -81q-100.5 0 -192 39t-158 105t-105.5 157.5t-39 192t39 192t105.5 157.5t158 105t192 39t192 -39t157.5 -105t105 -157.5t39 -192t-39 -192t-105 -157.5t-157.5 -105t-192 -39zM790 619l-88 89l-194 -193l-193 193l-89 -89l193 -193l-206 -206l88 -89l207 207
l207 -207l89 89l-207 206z" />
    <glyph glyph-name="uniE60A" unicode="&#xe60a;" 
d="M799 396q-2 3 -5 6l-439 439q-7 7 -16.5 7t-16.5 -7l-70 -69q-7 -7 -7 -17t7 -16l353 -353l-353 -353q-7 -7 -7 -16.5t7 -16.5l70 -70q7 -7 16.5 -7t16.5 7l369 369l70 70l2 2q9 11 3 25z" />
    <glyph glyph-name="uniE60B" unicode="&#xe60b;" 
d="M512 -112q-205 0 -350.5 145.5t-145.5 350.5t145.5 350.5t350.5 145.5t350.5 -145.5t145.5 -350.5t-145.5 -350.5t-350.5 -145.5zM512 818q-180 0 -307 -127t-127 -307t127 -307t307 -127t307 127t127 307t-127 307t-307 127zM745 323h-234h-60v60v234q0 13 8.5 21.5
t21.5 8.5t21.5 -8.5t8.5 -21.5v-234h234q13 0 21.5 -8.5t8.5 -21.5t-8.5 -21.5t-21.5 -8.5z" />
    <glyph glyph-name="uniE60C" unicode="&#xe60c;" 
d="M512 896q-212 0 -362 -150t-150 -362t150 -362t362 -150t362 150t150 362t-150 362t-362 150zM577 729l-24 -471h-82l-24 471h130zM563 56q-15 -20 -51 -20q-28 0 -51 17q-17 28 -17 58q0 34 17 51q23 17 51 17t51 -17q17 -23 17 -51q0 -32 -17 -55z" />
    <glyph glyph-name="uniE60D" unicode="&#xe60d;" 
d="M512 895q-104 0 -198.5 -40.5t-163 -109t-109 -163.5t-40.5 -199t40.5 -198.5t109 -163t163 -109t198.5 -40.5t199 40.5t163.5 109t109 163t40.5 198.5t-40.5 199t-109 163.5t-163.5 109t-199 40.5zM623 525q0 22 16 38t39 16t39 -16t16 -38v-73q0 -23 -16 -39t-39 -16
t-39 16t-16 39v73zM294 525q0 22 16 38t39 16t39 -16t16 -38v-73q0 -23 -16 -39t-39 -16t-39 16t-16 39v73zM754 101.5q-12 -9.5 -27 -7.5t-24 14q-36 48 -88.5 74t-111.5 26q-58 0 -110.5 -25.5t-88.5 -72.5q-9 -12 -24 -14t-26.5 7.5t-13.5 24.5t7 27q47 60 114 93t142 33
q76 0 143.5 -33.5t113.5 -94.5q10 -12 8 -27t-14 -24.5z" />
    <glyph glyph-name="uniE60E" unicode="&#xe60e;" 
d="M512 886q-102 0 -195 -39.5t-160.5 -107t-107 -160.5t-39.5 -195t39.5 -195t107 -160.5t160.5 -107t195 -39.5t195 39.5t160.5 107t107 160.5t39.5 195t-39.5 195t-107 160.5t-160.5 107t-195 39.5zM825 507l-351 -339q-7 -6 -16 -11q-17 -12 -37.5 -10t-35.5 16
l-151 151q-16 17 -16 40.5t16.5 40t40 16.5t39.5 -17l113 -113l318 306q17 17 40 17t39.5 -16.5t16.5 -40t-16 -40.5zM825 507z" />
    <glyph glyph-name="uniE60F" unicode="&#xe60f;" 
d="M900 776q-13 14 -32.5 14t-33.5 -14l-322 -322l-322 322q-14 14 -33.5 14t-32.5 -14q-14 -13 -14 -32.5t14 -33.5l322 -322l-322 -322q-14 -14 -14 -33.5t14 -32.5q13 -14 32.5 -14t33.5 14l322 322l322 -322q14 -14 33.5 -14t32.5 14q14 13 14 32.5t-14 33.5l-322 322
l322 322q14 14 14 33.5t-14 32.5z" />
    <glyph glyph-name="uniE610" unicode="&#xe610;" 
d="M887 406q-1 -1 -8 -4q-10 15 -27 15q-14 0 -23.5 -10t-9.5 -24q0 -4 1 -10q-6 -132 -102 -224t-229 -92q-90 0 -166.5 44.5t-121 120.5t-44.5 166.5t44.5 166.5t121 120.5t166.5 44.5q70 0 132.5 -27.5t108.5 -76.5l-261 -261l-70 70q-10 10 -23.5 10t-23.5 -10
t-10 -23.5t10 -23.5l94 -94q9 -10 23 -10t24 10l2 3l304 304q8 8 8 21q6 1 10 2q-55 79 -141.5 126t-186.5 47q-108 0 -200 -53.5t-145 -145t-53 -200t53 -200t145 -145t200 -53.5t199.5 53.5t145 145t53.5 200.5v17z" />
    <glyph glyph-name="uniE611" unicode="&#xe611;" 
d="M512 896q-139 0 -257 -68.5t-186.5 -186.5t-68.5 -257t68.5 -257t186.5 -186.5t257 -68.5t257 68.5t186.5 186.5t68.5 257t-68.5 257t-186.5 186.5t-257 68.5zM704 352h-160v-160q0 -13 -9.5 -22.5t-22.5 -9.5t-22.5 9.5t-9.5 22.5v160h-160q-13 0 -22.5 9.5t-9.5 22.5
t9.5 22.5t22.5 9.5h160v160q0 13 9.5 22.5t22.5 9.5t22.5 -9.5t9.5 -22.5v-160h160q13 0 22.5 -9.5t9.5 -22.5t-9.5 -22.5t-22.5 -9.5z" />
    <glyph glyph-name="uniE612" unicode="&#xe612;" horiz-adv-x="1025" 
d="M744 384l231 232q48 48 48 116t-48 116t-115.5 48t-115.5 -48l-232 -232l-232 232q-48 48 -116 48t-116 -48t-48 -116t48 -116l232 -232l-232 -232q-48 -48 -48 -115.5t48 -115.5t116 -48t116 48l232 231l232 -231q48 -48 115.5 -48t115.5 48t48 115.5t-48 115.5z
M917 -21q-24 -24 -58 -24t-57 24l-290 289l-290 -289q-24 -24 -58 -24t-58 24t-24 58t24 58l290 289l-290 290q-24 24 -24 58t24 58t58 24t58 -24l290 -290l290 290q23 24 57 24t58 -24t24 -58t-24 -58l-289 -290l289 -289q24 -25 24 -58.5t-24 -57.5z" />
    <glyph glyph-name="uniE613" unicode="&#xe613;" 
d="M512 832q-185 0 -316.5 -131.5t-131.5 -316.5t131.5 -316.5t316.5 -131.5t316.5 131.5t131.5 316.5t-131.5 316.5t-316.5 131.5zM512 0q-159 0 -271.5 112.5t-112.5 271.5t112.5 271.5t271.5 112.5t271.5 -112.5t112.5 -271.5t-112.5 -271.5t-271.5 -112.5zM670 588
l-158 -159l-158 159l-46 -46l159 -158l-159 -158l46 -46l158 159l158 -159l46 46l-159 158l159 158z" />
    <glyph glyph-name="uniE614" unicode="&#xe614;" 
d="M820 469v132q0 122 -86.5 208.5t-208.5 86.5t-208.5 -86.5t-86.5 -208.5v-132q-41 0 -70 -28.5t-29 -69.5v-99v-32v-66v-33q0 -122 86.5 -208.5t209.5 -86.5h197q122 0 208.5 86.5t86.5 208.5v33v66v32v99q0 41 -29 69.5t-70 28.5zM295 601q0 95 67.5 162t162.5 67
t162.5 -67t67.5 -162v-132h-66v132q0 68 -48 116t-116 48t-116 -48t-48 -116v-132h-66v132zM656 601v-132h-262v132q0 54 38.5 92.5t92.5 38.5t92.5 -38.5t38.5 -92.5zM853 272v-32v-66v-33q0 -95 -67 -162.5t-162 -67.5h-197q-95 0 -162.5 67.5t-67.5 162.5v33v66v32v99
q0 13 9.5 23t23.5 10h65h460h65q14 0 23.5 -10t9.5 -23v-99zM525 272q-27 0 -46.5 -19t-19.5 -46q0 -28 22 -88q16 -43 44 -43q18 0 27 10.5t17 32.5q22 59 22 88q0 27 -19.5 46t-46.5 19z" />
    <glyph glyph-name="uniE615" unicode="&#xe615;" 
d="M743 311q81 89 81 210q0 129 -91.5 220.5t-220.5 91.5t-220.5 -91.5t-91.5 -220.5q0 -121 81 -210q-105 -61 -167.5 -167t-62.5 -232v-1h58v1q0 82 31 157q31 72 87 128q44 44 99 73q83 -61 186 -61t186 61q55 -29 99 -73q56 -56 87 -128q31 -75 31 -157v-1h58v1
q0 126 -62.5 232t-167.5 167zM512 266q-52 0 -99 20q-45 20 -80.5 55t-54.5 81q-20 47 -20 99t20 99q19 45 54 80.5t81 54.5q47 20 99 20t99 -20q45 -19 80.5 -54.5t54.5 -80.5q20 -47 20 -99t-20 -99q-19 -46 -54 -81t-81 -55q-47 -20 -99 -20z" />
    <glyph glyph-name="uniE616" unicode="&#xe616;" horiz-adv-x="1000" 
d="M173 737q43 49 103 78.5t126 33.5q61 5 121 -13t108 -56q59 -45 94 -112t37 -140q4 -64 -17.5 -125.5t-63.5 -110.5q37 -36 125 -124l134 -134q-9 -9 -27.5 -28t-28.5 -28q-26 25 -118.5 117.5t-142.5 143.5q-54 -40 -121 -55.5t-133 -3.5q-65 10 -122.5 46t-95.5 89
q-50 69 -60 152q-11 73 11 144.5t71 125.5zM392 809q-31 -5 -41 -8q-64 -16 -116.5 -60t-80.5 -104q-31 -68 -26 -144q4 -72 42.5 -135t99.5 -100q63 -39 140.5 -43t144.5 29q64 31 108 89.5t56 128.5q11 66 -7 129q-18 68 -67 121.5t-114 78.5t-139 18z" />
    <glyph glyph-name="uniE617" unicode="&#xe617;" 
d="M585 314h73v-3h-73v3zM585 647v151h-73v70h-73v-72h70v-70h-70v-151h70v-115h76v118h-73v69h73zM28 868v-336h333v336h-333zM290 605h-190v190h190v-190zM139 756h112v-112h-112v112zM923 387v72h-76v-72h-72v72h-601v-72h-73v72h-73v-75h73v-73h151v73h73v-73h187v3v70
h73v-70h73v-3h41v73h73v-73h221v76h-70zM996 49v153h-76v70h-262v-70h-146v70h-73v-75h70v-70h-70v-154h70v-73h78v78h-75v71h86h62v-149h74v76h76v-76h72v73h40v-73h74v78h-73v71h73zM733 54h-73v70h73v-70zM808 127h-72v70h72v-70zM847 -24h-35v73h35v-73zM660 870v-335
h333v335h-333zM922 608h-190v189h190v-189zM771 758h112v-111h-112v111zM28 233v-335h333v335h-333zM290 -29h-190v189h190v-189zM139 121h112v-111h-112v111z" />
    <glyph glyph-name="uniE618" unicode="&#xe618;" 
d="M731 632h-456v-231l88 -88h368v319zM807 775h-609q-32 0 -55.5 -23t-23.5 -56v-141l55 -54v218h659v-494h-384l218 -217h82q12 0 19.5 8t7.5 19t-7.5 19t-19.5 8h-136v109h194q33 0 56 23.5t23 55.5v446q0 33 -23 56t-56 23z" />
    <glyph glyph-name="uniE619" unicode="&#xe619;" horiz-adv-x="1178" 
d="M229 -77h720q10 0 17 -7.5t7 -17.5q0 -11 -7 -18.5t-17 -7.5h-720q-10 0 -17 7.5t-7 18.5q0 10 7 17.5t17 7.5zM410 -26h358v-51h-358v51v0zM103 896h972q42 0 72.5 -30t30.5 -72v-717q0 -43 -30.5 -73t-72.5 -30h-972q-43 0 -73 30t-30 73v717q0 42 30 72t73 30zM51 77
q0 -22 15 -36.5t37 -14.5h972q21 0 36 14.5t15 36.5v717q0 21 -15 36t-36 15h-972q-22 0 -37 -15t-15 -36v-717zM102 121q0 -18 14 -31t33 -13h880q19 0 32.5 13t13.5 31v628q0 18 -13.5 31.5t-32.5 13.5h-880q-19 0 -33 -13.5t-14 -31.5v-628z" />
    <glyph glyph-name="uniE61A" unicode="&#xe61a;" 
d="M473 542q0 16 11.5 27.5t27.5 11.5t27.5 -11.5t11.5 -27.5v-393q0 -16 -11.5 -27.5t-27.5 -11.5t-27.5 11.5t-11.5 27.5v393zM669 542q0 16 11.5 27.5t28 11.5t28 -11.5t11.5 -27.5v-393q0 -16 -11.5 -27.5t-28 -11.5t-28 11.5t-11.5 27.5v393zM276 542q0 16 11.5 27.5
t28 11.5t28 -11.5t11.5 -27.5v-393q0 -16 -11.5 -27.5t-28 -11.5t-28 11.5t-11.5 27.5v393zM983 739h-222l-77 133q-8 19 -28 23q-5 1 -11 1h-266q-25 2 -38 -20l-80 -137h-220q-17 0 -28.5 -11.5t-11.5 -28t11.5 -28t28.5 -11.5h78v-709q0 -33 23 -56t56 -23h628
q33 0 56 23t23 56v709h78q17 0 28.5 11.5t11.5 28t-11.5 28t-28.5 11.5zM397 817h228l46 -78h-319zM826 -8q0 -16 -11.5 -27.5t-27.5 -11.5h-550q-16 0 -27.5 11.5t-11.5 27.5v668h628v-668z" />
    <glyph glyph-name="uniE61B" unicode="&#xe61b;" horiz-adv-x="1041" 
d="M924 641l-186 168l93 84q23 21 56 21t56 -21l75 -67q23 -21 23 -50.5t-23 -50.5l-94 -84v0zM382 152l-187 169l508 453l187 -168l-508 -454v0zM45 15l114 273l185 -167l-299 -106v0zM884 -43q19 0 33 -12.5t14 -30t-14 -30t-33 -12.5h-837q-19 0 -33 12.5t-14 30t14 30
t33 12.5h837v0zM884 -43z" />
    <glyph glyph-name="uniE61C" unicode="&#xe61c;" 
d="M883 747h-43v13q0 29 -20 49.5t-49 20.5h-1q-29 0 -49 -20.5t-20 -49.5v-13h-384v13q0 29 -20.5 49.5t-48.5 20.5h-1q-29 0 -49 -20.5t-20 -49.5v-13h-43q-29 0 -49.5 -20t-20.5 -49v-666q0 -29 20.5 -49t49.5 -20h748q29 0 49.5 20t20.5 49v666q0 29 -20.5 49t-49.5 20z
M728 760q0 18 12.5 30t29.5 12h1q17 0 29.5 -12t12.5 -30v-124q0 -17 -12.5 -29t-29.5 -12h-1q-17 0 -29.5 12t-12.5 29v124zM205 760q0 18 12.5 30t29.5 12h1q17 0 29 -12t12 -30v-124q0 -17 -12 -29t-29 -12h-1q-17 0 -29.5 12t-12.5 29v124zM883 -2h-748q-6 0 -10 4.5
t-4 9.5v490h776v-490q0 -5 -4 -9.5t-10 -4.5zM223 402h128v-63h-128v63zM446 402h127v-63h-127v63zM668 402h125v-63h-125v63zM223 274h128v-62h-128v62zM446 274h127v-62h-127v62zM668 274h125v-62h-125v62zM223 149h128v-65h-128v65zM446 149h127v-65h-127v65zM668 149
h125v-65h-125v65zM668 149z" />
    <glyph glyph-name="uniE61D" unicode="&#xe61d;" 
d="M512 300zM26 300q0 99 38.5 189t103.5 155t155 103.5t189 38.5t189 -38.5t155 -103.5t103.5 -155t38.5 -189t-38.5 -189t-103.5 -155t-155 -103.5t-189 -38.5t-189 38.5t-155 103.5t-103.5 155t-38.5 189z" />
  </font>
</defs>
</svg>
